<svg width="30" height="30" viewBox="0 0 30 30" fill="none" xmlns="http://www.w3.org/2000/svg">
<rect width="30" height="30" fill="#82B1FF"/>
<path d="M18.4286 13.6364L15 17.0909L11.5714 13.6364L12.7714 12.4273L14.1429 13.7659V10.1818H15.8571V13.7659L17.2286 12.4273L18.4286 13.6364ZM13.2857 21.4091H16.7143V20.5455H13.2857V21.4091ZM10.7143 24C10.2429 24 9.83929 23.8309 9.50357 23.4926C9.16786 23.1544 9 22.7477 9 22.2727V6.72727C9 6.25227 9.16786 5.84564 9.50357 5.50739C9.83929 5.16913 10.2429 5 10.7143 5H19.2857C19.7571 5 20.1607 5.16913 20.4964 5.50739C20.8321 5.84564 21 6.25227 21 6.72727V22.2727C21 22.7477 20.8321 23.1544 20.4964 23.4926C20.1607 23.8309 19.7571 24 19.2857 24H10.7143ZM10.7143 19.6818V22.2727H19.2857V19.6818H10.7143ZM10.7143 17.9545H19.2857V9.31818H10.7143V17.9545ZM10.7143 7.59091H19.2857V6.72727H10.7143V7.59091Z" fill="#212121"/>
</svg>
